<?xml version="1.0" standalone="no"?>
<svg width="512" height="512" viewBox="0 0 512 512" fill="none" xmlns="http://www.w3.org/2000/svg">
  <path
    d="M96 268C96 261.373 101.373 256 108 256H404C410.627 256 416 261.373 416 268V368C416 374.627 410.627 380 404 380H108C101.373 380 96 374.627 96 368V268Z"
    fill="#9333EA"
  />
  <path
    d="M149.333 288C149.333 279.164 156.497 272 165.333 272H346.667C355.503 272 362.667 279.164 362.667 288V348C362.667 356.837 355.503 364 346.667 364H165.333C156.497 364 149.333 356.837 149.333 348V288Z"
    fill="#000000"
  />
  <circle cx="165.333" cy="380" r="32" fill="#9333EA" />
  <circle cx="346.667" cy="380" r="32" fill="#9333EA" />
</svg> 